<svg width="36" height="36" viewBox="0 0 36 36" fill="none" xmlns="http://www.w3.org/2000/svg">
<g clip-path="url(#clip0_3763_6050)">
<path d="M18 0.498047C8.35088 0.498047 0.5 8.34892 0.5 17.998C0.5 27.6472 8.35088 35.498 18 35.498C27.6491 35.498 35.5 27.6472 35.5 17.998C35.5 8.34892 27.6491 0.498047 18 0.498047ZM27.7807 13.3928L16.5965 24.4893C15.9386 25.1472 14.886 25.191 14.1842 24.5331L8.26316 19.1384C7.5614 18.4805 7.51754 17.384 8.13158 16.6823C8.78947 15.9805 9.88596 15.9366 10.5877 16.5945L15.2807 20.8928L25.2807 10.8928C25.9825 10.191 27.0789 10.191 27.7807 10.8928C28.4825 11.5945 28.4825 12.691 27.7807 13.3928Z" fill="#00A3AC"/>
</g>
<defs>
<clipPath id="clip0_3763_6050">
<rect width="35" height="35" fill="white" transform="translate(0.5 0.5)"/>
</clipPath>
</defs>
</svg>
