<svg width="44" height="44" viewBox="0 0 44 44" fill="none" xmlns="http://www.w3.org/2000/svg">
<path d="M23.4855 23.7258H20.514C20.4181 23.7259 20.3262 23.7641 20.2584 23.8319C20.1906 23.8997 20.1525 23.9916 20.1523 24.0874V27.0724C20.1525 27.1682 20.1906 27.2601 20.2584 27.3279C20.3262 27.3957 20.4181 27.4339 20.514 27.434H23.4855C23.5814 27.4339 23.6733 27.3957 23.7411 27.3279C23.8089 27.2601 23.847 27.1682 23.8471 27.0724V24.0874C23.847 23.9916 23.8089 23.8997 23.7411 23.8319C23.6733 23.7641 23.5814 23.7259 23.4855 23.7258Z" fill="#00AC5F"/>
<path d="M34.4462 11.5224H28.3174V8.95787C28.3174 7.61778 27.2168 6.52759 25.8638 6.52759H18.1362C16.7832 6.52759 15.6826 7.61778 15.6826 8.95787V11.5224H9.55377C6.49145 11.5224 4 14.0138 4 17.0762V20.4049C4.20616 21.4087 4.93094 22.235 5.93395 22.556L18.0368 25.5138V24.0874C18.0368 22.7214 19.1482 21.61 20.5142 21.61H23.4858C24.8518 21.61 25.9632 22.7214 25.9632 24.0874V25.5138L38.0661 22.556C39.0691 22.235 39.7938 21.4087 40 20.4049V17.0762C40 14.0138 37.5085 11.5224 34.4462 11.5224ZM26.2016 11.5224H17.7984V8.95787C17.7984 8.77857 17.9436 8.64336 18.1362 8.64336H25.8638C26.0564 8.64336 26.2016 8.77857 26.2016 8.95787V11.5224Z" fill="#00AC5F"/>
<path d="M38.6627 24.5862C38.6425 24.5924 38.6221 24.598 38.6016 24.603L25.8789 27.7124C25.5959 28.769 24.6305 29.5496 23.4858 29.5496H20.5142C19.3695 29.5496 18.4041 28.769 18.1211 27.7124L5.39845 24.603C5.3779 24.598 5.35751 24.5923 5.33727 24.5862C4.86214 24.4395 4.41145 24.2231 4 23.9438L4 32.9363C4 35.4378 6.03505 37.4729 8.53656 37.4729H35.4634C37.9649 37.4729 40 35.4378 40 32.9363V23.9438C39.5885 24.2231 39.1379 24.4395 38.6627 24.5862Z" fill="#00AC5F"/>
</svg>
