<svg width="44" height="44" viewBox="0 0 44 44" fill="none" xmlns="http://www.w3.org/2000/svg">
<g clip-path="url(#clip0_3763_6041)">
<path d="M12.9386 29.8754L12.9417 29.8761C14.7265 30.374 16.939 30.927 19.2475 31.1655C19.0377 31.1001 18.8288 31.033 18.6215 30.9628C16.3239 30.2638 14.1612 29.8366 12.0645 29.6689C12.3563 29.7299 12.6471 29.7974 12.9355 29.8747L12.9386 29.8754Z" fill="#006EF0"/>
<path d="M21.4725 31.9153C18.5868 31.9153 15.6603 31.2876 12.7737 30.4823C11.482 30.1361 10.1541 29.9623 8.83011 29.9624C5.77352 29.9625 2.74057 30.8895 0.244141 32.7623C2.66287 31.7406 5.01921 31.2735 7.39163 31.2736C9.4617 31.2737 11.5441 31.6294 13.6891 32.2826C15.6217 32.938 17.7694 33.3114 19.9138 33.3114C21.8176 33.3114 23.7183 33.0163 25.4628 32.3626C24.3568 32.2746 23.2491 32.1202 22.1552 31.9029C21.9279 31.911 21.7003 31.9153 21.4725 31.9153Z" fill="#006EF0"/>
<path d="M5.46744 26.9979C7.58284 26.3194 9.80261 25.9753 12.0659 25.9753C14.0111 25.9753 15.9525 26.2312 17.836 26.7361L17.8404 26.7372L17.8447 26.7385C21.1516 27.661 25.5025 28.7199 29.8311 28.7199C32.1866 28.7199 34.3684 28.4116 36.4165 27.7863L44.0003 13.2154C44.0003 13.2154 28.0725 11.6089 0.244141 25.2797V29.2672H0.649993C2.13743 28.3099 3.75201 27.5483 5.46744 26.9979ZM23.4718 18.8578C24.1219 18.8578 24.649 19.3849 24.649 20.035C24.649 20.6852 24.1219 21.2123 23.4718 21.2123C22.8217 21.2123 22.2946 20.6852 22.2946 20.035C22.2946 19.3848 22.8217 18.8578 23.4718 18.8578ZM19.7439 20.035C20.394 20.035 20.9211 20.5622 20.9211 21.2123C20.9211 21.8624 20.394 22.3895 19.7439 22.3895C19.0938 22.3895 18.5667 21.8624 18.5667 21.2123C18.5667 20.5622 19.0938 20.035 19.7439 20.035ZM16.1631 21.2123C16.8133 21.2123 17.3404 21.7394 17.3404 22.3895C17.3404 23.0396 16.8133 23.5668 16.1631 23.5668C15.513 23.5668 14.9859 23.0396 14.9859 22.3895C14.9859 21.7394 15.513 21.2123 16.1631 21.2123Z" fill="#006EF0"/>
<path d="M17.6068 27.5905C15.7921 27.1041 13.9257 26.8599 12.0655 26.8599C7.76976 26.8598 3.50816 28.1625 0 30.7945C3.39888 29.3587 6.70995 28.7024 10.044 28.7026C12.9526 28.7027 15.8791 29.2025 18.8931 30.1204C21.609 31.0413 24.627 31.5663 27.6403 31.5663C32.6288 31.5663 37.603 30.1268 41.1632 26.6611C37.5003 28.8051 33.6911 29.6043 29.8309 29.6043C25.7755 29.6043 21.6638 28.7222 17.6068 27.5905Z" fill="#006EF0"/>
<path d="M9.47392 13.0389L9.83288 14.2202C10.4924 13.9419 12.308 13.2152 14.3596 12.7347C14.755 12.6423 15.1509 12.8877 15.2439 13.2833C15.3365 13.679 15.0908 14.0748 14.6952 14.1675C12.5811 14.6626 10.6886 15.4535 10.2635 15.6367L11.3058 19.0661C11.3058 19.0661 20.505 14.738 31.3075 13.1572L20.8924 10.8285C20.8924 10.8285 13.1295 9.85403 6.21484 13.0467C6.21484 13.0467 7.68433 13.5005 9.47392 13.0389Z" fill="#006EF0"/>
</g>
<defs>
<clipPath id="clip0_3763_6041">
<rect width="44" height="44" fill="white"/>
</clipPath>
</defs>
</svg>
