<svg width="45" height="46" viewBox="0 0 45 46" fill="none" xmlns="http://www.w3.org/2000/svg">
<ellipse cx="22.552" cy="23" rx="22.4485" ry="22.4484" fill="#888888"/>
<path d="M30.4895 15.5186H14.6443C13.9441 15.5193 13.2728 15.7978 12.7777 16.2929C12.2826 16.788 12.0042 17.4593 12.0034 18.1594V29.4775C12.0042 30.1776 12.2826 30.8489 12.7777 31.344C13.2728 31.8391 13.9441 32.1176 14.6443 32.1183H30.4895C31.1897 32.1176 31.861 31.8391 32.3561 31.344C32.8512 30.8489 33.1297 30.1776 33.1304 29.4775V18.1594C33.1297 17.4593 32.8512 16.788 32.3561 16.2929C31.861 15.7978 31.1897 15.5193 30.4895 15.5186ZM29.8208 19.8868L23.03 25.1686C22.8976 25.2715 22.7346 25.3274 22.5669 25.3274C22.3992 25.3274 22.2362 25.2715 22.1038 25.1686L15.313 19.8868C15.2332 19.8266 15.1662 19.7511 15.1158 19.6647C15.0655 19.5783 15.0328 19.4828 15.0197 19.3837C15.0066 19.2846 15.0133 19.1838 15.0394 19.0873C15.0656 18.9908 15.1107 18.9005 15.172 18.8216C15.2334 18.7426 15.3099 18.6767 15.3969 18.6276C15.484 18.5784 15.58 18.5471 15.6793 18.5354C15.7786 18.5237 15.8792 18.5318 15.9753 18.5593C16.0714 18.5868 16.1611 18.6331 16.2392 18.6956L22.5669 23.6171L28.8946 18.6956C29.0529 18.5761 29.2518 18.5237 29.4483 18.5497C29.6449 18.5757 29.8233 18.6781 29.945 18.8346C30.0667 18.9911 30.1219 19.1893 30.0987 19.3862C30.0754 19.5831 29.9756 19.7629 29.8208 19.8868Z" fill="white"/>
</svg>
