<svg width="46" height="46" viewBox="0 0 46 46" fill="none" xmlns="http://www.w3.org/2000/svg">
<ellipse cx="22.655" cy="23" rx="22.4485" ry="22.4484" fill="#4D9FEB"/>
<path d="M34.6346 15.8989C33.8526 16.2357 33.0305 16.4703 32.1886 16.5968C32.5822 16.5292 33.1614 15.8201 33.3919 15.5331C33.7422 15.1001 34.0091 14.6058 34.1792 14.0754C34.1792 14.036 34.2185 13.9797 34.1792 13.9515C34.1593 13.9407 34.1371 13.935 34.1145 13.935C34.0919 13.935 34.0697 13.9407 34.0498 13.9515C33.1356 14.4471 32.1626 14.8252 31.1539 15.0772C31.1187 15.0879 31.0813 15.0889 31.0457 15.08C31.01 15.071 30.9774 15.0526 30.9515 15.0265C30.8729 14.9329 30.7884 14.8446 30.6984 14.762C30.287 14.393 29.8202 14.0911 29.3151 13.8671C28.6333 13.5872 27.8969 13.4659 27.1615 13.5125C26.4478 13.5577 25.7511 13.7492 25.1146 14.0754C24.4879 14.4192 23.937 14.8863 23.4952 15.4486C23.0304 16.0274 22.6949 16.6991 22.5111 17.4185C22.3596 18.1028 22.3424 18.81 22.4605 19.5009C22.4605 19.6191 22.4605 19.636 22.3593 19.6191C18.35 19.0281 15.0605 17.6042 12.3726 14.5481C12.2545 14.413 12.1926 14.413 12.0971 14.5481C10.9274 16.3266 11.4954 19.1407 12.9574 20.5308C13.1542 20.7166 13.3566 20.8967 13.5703 21.0655C12.9 21.0179 12.246 20.8361 11.6472 20.5308C11.5347 20.4577 11.4729 20.4971 11.4673 20.6322C11.4513 20.8194 11.4513 21.0077 11.4673 21.195C11.5846 22.0924 11.938 22.9426 12.4912 23.6585C13.0445 24.3745 13.7778 24.9305 14.6162 25.2697C14.8206 25.3574 15.0336 25.4234 15.2516 25.4667C14.6311 25.589 13.9946 25.608 13.3679 25.523C13.2329 25.4949 13.1823 25.568 13.2329 25.6975C14.0595 27.9487 15.8533 28.6354 17.1691 29.0181C17.3491 29.0462 17.529 29.0462 17.7314 29.0913C17.7314 29.0913 17.7314 29.0913 17.6977 29.125C17.3097 29.8342 15.7409 30.3126 15.0211 30.5602C13.7073 31.0325 12.3066 31.213 10.9162 31.0892C10.6969 31.0555 10.6463 31.0611 10.59 31.0892C10.5338 31.1174 10.59 31.1793 10.6519 31.2356C10.9331 31.4213 11.2142 31.5845 11.5066 31.7421C12.3771 32.2173 13.2974 32.5948 14.2507 32.8677C19.1878 34.2298 24.7435 33.2279 28.4492 29.5415C31.362 26.6486 32.3854 22.6583 32.3854 18.6623C32.3854 18.5103 32.5709 18.4203 32.6778 18.3415C33.4147 17.7668 34.0644 17.0881 34.6065 16.3266C34.7004 16.2131 34.7485 16.0686 34.7415 15.9214C34.7415 15.837 34.7415 15.8539 34.6346 15.8989Z" fill="white"/>
</svg>
