<svg width="46" height="46" viewBox="0 0 46 46" fill="none" xmlns="http://www.w3.org/2000/svg">
<ellipse cx="22.861" cy="23" rx="22.4485" ry="22.4484" fill="#65D072"/>
<path d="M10.7734 35.0878L12.5094 28.6442C11.1094 26.1341 10.6646 23.205 11.2566 20.3944C11.8486 17.5838 13.4378 15.0803 15.7324 13.3432C18.027 11.6061 20.8732 10.752 23.7486 10.9376C26.6241 11.1231 29.336 12.336 31.3867 14.3535C33.4374 16.371 34.6892 19.0579 34.9126 21.9211C35.136 24.7843 34.3159 27.6318 32.6028 29.941C30.8897 32.2502 28.3986 33.8663 25.5864 34.4926C22.7743 35.119 19.8298 34.7136 17.2934 33.3509L10.7734 35.0878ZM17.6078 30.9397L18.011 31.1781C19.8482 32.2634 21.994 32.7125 24.1141 32.4555C26.2342 32.1984 28.2093 31.2496 29.7319 29.7569C31.2544 28.2642 32.2387 26.3115 32.5314 24.2031C32.8242 22.0946 32.4089 19.9489 31.3503 18.1002C30.2917 16.2516 28.6492 14.8039 26.6788 13.9827C24.7085 13.1615 22.5209 13.013 20.457 13.5603C18.3932 14.1076 16.5689 15.32 15.2685 17.0085C13.9682 18.697 13.2648 20.7668 13.268 22.8954C13.2662 24.6603 13.756 26.391 14.6827 27.895L14.9355 28.3105L13.9651 31.9069L17.6078 30.9397Z" fill="white"/>
<path fill-rule="evenodd" clip-rule="evenodd" d="M27.4769 24.6812C27.2303 24.4975 26.9416 24.3681 26.6328 24.303C26.3239 24.238 26.0031 24.2389 25.6947 24.3057C25.2313 24.4836 24.9319 25.1555 24.6325 25.4915C24.5693 25.572 24.4766 25.6285 24.3716 25.6503C24.2666 25.6721 24.1566 25.6578 24.0622 25.61C22.3657 24.9961 20.9438 23.8702 20.0273 22.4152C19.9491 22.3244 19.9121 22.2091 19.924 22.0936C19.936 21.9781 19.996 21.8714 20.0914 21.796C20.4254 21.4905 20.6705 21.1121 20.8043 20.6959C20.834 20.2367 20.7202 19.7794 20.4764 19.3784C20.2879 18.8162 19.9292 18.3156 19.4427 17.9358C19.1918 17.8315 18.9135 17.7965 18.6416 17.8351C18.3696 17.8736 18.1155 17.9841 17.91 18.1531C17.5532 18.4376 17.27 18.7924 17.0812 19.1914C16.8924 19.5904 16.8029 20.0235 16.8193 20.4587C16.8204 20.7031 16.8539 20.9465 16.9191 21.1833C17.0846 21.7524 17.3392 22.2961 17.6747 22.7972C17.9168 23.1811 18.181 23.5527 18.466 23.9105C19.3925 25.0857 20.557 26.0835 21.895 26.8485C22.5664 27.2372 23.284 27.5533 24.0337 27.7905C24.8123 28.1166 25.6721 28.2418 26.5216 28.1528C27.0056 28.0851 27.4642 27.9085 27.857 27.6385C28.2499 27.3686 28.5649 27.0136 28.7743 26.6047C28.8974 26.3577 28.9347 26.0816 28.8813 25.8142C28.7529 25.2675 27.9616 24.9447 27.4769 24.6812Z" fill="white"/>
</svg>
